<svg
   xmlns="http://www.w3.org/2000/svg"
   width="32"
   height="32"
   viewBox="0 0 100 100">
  <g
     transform="matrix(0.93756,0,0,0.93756,52.355143,10.798361)">
    <path
       style="fill:#444444;fill-opacity:1;fill-rule:nonzero"
       d="m -1.18914,20.8475 1.1740876,0 C 2.66343,23.6144 4.84995,25.9879 6.54449,27.968 c 1.69455,1.9802 3.36177,4.5571 5.00161,7.7308 1.64,3.1737 2.46,6.0897 2.4601,8.7481 -10e-5,5.1538 -1.1754,10.4705 -3.526,15.9498 -0.1093,0.6511 0.0547,1.1936 0.492,1.6276 0.4373,0.434 0.9293,0.651 1.4759,0.651 0.6559,0 1.1753,-0.3255 1.5581,-0.9765 2.3582,-5.9677 3.5373,-11.7183 3.5373,-17.2519 0,-3.0381 -0.6032,-6.1304 -1.8098,-9.277 -1.2065,-3.1466 -2.6843,-6.1033 -4.4335,-8.8701 L 6.13452,18.0807 C 4.43997,15.3682 2.99141,12.425 1.78882,9.25133 0.586237,6.07763 -0.0150548,2.99887 -0.0150524,0.0150487 l -1.1740876,0 0,20.8324513"/>
  </g>
  <g
     transform="matrix(2.9296875,0,0,2.9296875,51.109899,71.278305)">
    <polyline
       style="fill:#444444;fill-opacity:1;stroke:#444444;stroke-width:0.86720002;stroke-miterlimit:4;stroke-opacity:1;stroke-dasharray:none"
       points="0,0 0,-20.3346 "/>
  </g>
  <g
     transform="matrix(0.93756,0,0,0.93756,26.603734,75.027733)">
    <path
       style="fill:#444444;fill-opacity:1;fill-rule:nonzero"
       d="m 18.3256,-11.4413 c -4.4487,0 -8.61244,1.62868 -12.49141,4.88596 C 1.95522,-3.29805 0.0157347,0.203527 0.0157396,3.9494 0.0157371,6.2295 0.856632,8.06172 2.53843,9.44607 c 1.68179,1.38433 3.87896,2.07653 6.59153,2.07653 4.44864,0 8.61234,-1.62866 12.49134,-4.88594 3.879,-3.25728 5.8185,-6.758861 5.8185,-10.50474 0,-2.2801 -0.8409,-4.11232 -2.5227,-5.49666 -1.6818,-1.38436 -3.879,-2.07656 -6.5915,-2.07656"/>
  </g>
</svg>
