<svg
   xmlns="http://www.w3.org/2000/svg"
   width="32"
   height="32"
   viewBox="0 0 100 100">
  <g>
    <path
       style="fill:#444444;fill-opacity:1;fill-rule:nonzero"
       d="m 51.2402529016,30.3441431 1.10077757026,0.0 C 54.8522684308,32.938277864 56.902262122,35.163576524 58.4909950444,37.02003908 c 1.588742298,1.856556312 3.1518610812,4.272554676 4.6893094716,7.248088848 1.5375984,2.975534172 2.3063976,5.709459132 2.306491356,8.201868636 -9.3756e-05,4.831996728 -1.102008024,9.81672198 -3.30583656,14.953894488 -0.102475308,0.610445316 0.051284532,1.119071616 0.46127952,1.525972656 0.409994988,0.40690104 0.871274508,0.61035156 1.383744804,0.61035156 0.614945604,0.0 1.101914268,-0.30517578 1.460812236,-0.91552734 2.210953992,-5.595076812 3.316430988,-10.986609348 3.316430988,-16.174691364 0.0,-2.848401036 -0.565536192,-5.747617824 -1.696796088,-8.69774412 -1.13116614,-2.950126296 -2.516692308,-5.722209948 -4.15667226,-8.316250956 L 58.1066235712,27.750102092 C 56.5178812732,25.206970592 55.1597693596,22.447544 54.0322690792,19.4720379548 52.9047753617,16.4965037828 52.3410282217,13.6099815572 52.3410304719,10.8124700592 l -1.10077757026,0.0 0.0,19.5316730408
"/>
  </g>
  <g>
    <polyline
       style="fill:#444444;fill-opacity:1;stroke:#444444;stroke-width:2.54062505859;stroke-miterlimit:4;stroke-opacity:1;stroke-dasharray:none"
       points="51.109899,71.278305 51.109899,11.7042815625"/>
  </g>
  <g>
    <path
       style="fill:#444444;fill-opacity:1;fill-rule:nonzero"
       d="m 43.785083536,64.300827772 c -4.170923172,0.0 -8.0746792464,1.5269852208 -11.7114463596,4.5808806576 C 28.4368700632,71.935613242 26.6184862253,75.2185517741 26.6184908194,78.730532464 26.6184884755,80.86826302 27.4068778979,82.5860792032 28.9836644308,83.8839903892 c 1.5767790324,1.2978924348 3.6367577376,1.9468714668 6.1799548668,1.9468714668 4.1708669184,0.0 8.0745854904,-1.5269664696 11.7113807304,-4.5808619064 3.63679524,-3.0538954368 5.45519286,-6.33683771916 5.45519286,-9.8488240344 0.0,-2.137730556 -0.788394204,-3.8555467392 -2.365182612,-5.1534485496 -1.576788408,-1.2979205616 -3.63679524,-1.9468995936 -6.17992674,-1.9468995936"/>
  </g>
</svg>
