<svg
   xmlns="http://www.w3.org/2000/svg"
   width="32"
   height="32">
  <path
     style="fill:white"
     d="m 16.40,9.71 0.35,0.00 C 17.55,10.54 18.21,11.25 18.72,11.85 c 0.51,0.59 1.01,1.37 1.50,2.32 0.49,0.95 0.74,1.83 0.74,2.62 -0.00,1.55 -0.35,3.14 -1.06,4.79 -0.03,0.20 0.02,0.36 0.15,0.49 0.13,0.13 0.28,0.20 0.44,0.20 0.20,0.00 0.35,-0.10 0.47,-0.29 0.71,-1.79 1.06,-3.52 1.06,-5.18 0.00,-0.91 -0.18,-1.84 -0.54,-2.78 -0.36,-0.94 -0.81,-1.83 -1.33,-2.66 L 18.59,8.88 C 18.09,8.07 17.65,7.18 17.29,6.23 16.93,5.28 16.75,4.36 16.75,3.46 l -0.35,0.00 0.00,6.25"/>
  <polyline
     style="fill:white;stroke:white;stroke-width:0.81"
     points="16.36,22.81 16.36,3.75"/>
  <path
     style="fill:white"
     d="m 14.01,20.58 c -1.33,0.00 -2.58,0.49 -3.75,1.47 C 9.10,23.02 8.52,24.07 8.52,25.19 8.52,25.88 8.77,26.43 9.27,26.84 c 0.50,0.42 1.16,0.62 1.98,0.62 1.33,0.00 2.58,-0.49 3.75,-1.47 1.16,-0.98 1.75,-2.03 1.75,-3.15 0.00,-0.68 -0.25,-1.23 -0.76,-1.65 -0.50,-0.42 -1.16,-0.62 -1.98,-0.62"/>
</svg>